# xmcd CD database file
#
# Track frame offsets:
#	150
#	22385
#	40326
#	58578
#	84684
#	108191
#	129197
#	150406
#	168649
#	197842
#	225926
#	245269
#	269025
#
# Disc length: 3791 seconds
#
# Revision: 0
# Processed by: cddbd v1.4PL0 Copyright (c) Steve Scherf et al.
# Submitted via: NeoAudio 9.9.9
#
DISCID=aa0ecd0d
DTITLE=MARVA WRIGHT - THE BLUES QUEEN OF NEW ORLEANS
DYEAR=1900
DGENRE=Blues
TTITLE0=LET THEM TALK
TTITLE1=ROCKIN' PNEUMONIA
TTITLE2=LOVE AWAY THE PAIN
TTITLE3=SERVE SOMEBODY
TTITLE4=WEARING YOUR NAME
TTITLE5=KNOCKIN' ON HEAVEN'S DOOR
TTITLE6=THE WEIGHT
TTITLE7=PARTYING ALL NIGHT
TTITLE8=GUESS WHO
TTITLE9=A DIFFICULT WOMAN
TTITLE10=THE MAKER
TTITLE11=CABBAGE ALLEY
TTITLE12=I BEEN HOODOOD
EXTD=
EXTT0=
EXTT1=
EXTT2=
EXTT3=
EXTT4=
EXTT5=
EXTT6=
EXTT7=
EXTT8=
EXTT9=
EXTT10=
EXTT11=
EXTT12=
PLAYORDER=
